<?xml version='1.0' encoding='UTF-8' ?>
<!DOCTYPE svg PUBLIC "-//W3C//DTD SVG 1.1//EN" "http://www.w3.org/Graphics/SVG/1.1/DTD/svg11.dtd" [ 
 <!ATTLIST svg 
                                               xmlns:dsy CDATA #FIXED "http://www.3ds.com/print"  
                                               dsy:text-version CDATA #IMPLIED > 

                                               <!ATTLIST text 
                                               xmlns:dsy CDATA #FIXED "http://www.3ds.com/print" 
                                               dsy:text-version CDATA #IMPLIED > 
                                                ]>
<svg width = "841" xmlns = "http://www.w3.org/2000/svg" height = "1189" version = "1.1" viewBox = "0 0 841 1189" xmlns:dsy = "http://www.3ds.com/print" xmlns:xlink = "http://www.w3.org/1999/xlink" dsy:text-version = "21000"><g fill = "none" stroke = "rgb(0, 0, 0)" stroke-width = "0.13" stroke-linecap = "butt" stroke-linejoin = "miter"><path d = "M 532 1079.06 L 568.223 1079.06"/><path d = "M 532 109.942 L 568.223 109.942"/><path d = "M 311 107.942 L 311 81.5272"/><path d = "M 530 107.942 L 530 81.5272"/></g><g fill = "none" stroke = "rgb(0, 0, 0)" stroke-width = "0.35" stroke-linecap = "butt" stroke-linejoin = "miter"><path d = "M 311 109.942 L 311 1079.06"/><path d = "M 530 1079.06 L 311 1079.06"/><path d = "M 530 1079.06 L 530 109.942"/><path d = "M 311 109.942 L 530 109.942"/><circle r = "4.5" cx = "470" cy = "428.059"/><circle r = "4.5" cx = "371" cy = "428.059"/><circle r = "4.5" cx = "420.5" cy = "467.059"/><circle r = "4.5" cx = "493.25" cy = "767.059"/><circle r = "4.5" cx = "347.75" cy = "767.059"/><circle r = "4.5" cx = "493.25" cy = "986.733"/><circle r = "4.5" cx = "347.75" cy = "986.733"/><circle r = "4.5" cx = "420.5" cy = "876.558"/></g><g fill = "none" stroke = "rgb(0, 0, 0)" stroke-width = "0.13" stroke-linecap = "butt" stroke-linejoin = "miter"><path d = "M 563.123 605.111 L 563.159 605.111 L 563.643 605.03 L 564.006 604.793 L 564.238 604.42 L 564.324 603.926 L 564.238 603.401 L 564.016 603.008 L 563.663 602.756 L 563.209 602.665 L 562.911 602.705 L 562.669 602.816 L 562.483 602.998 L 562.347 603.24 L 562.074 602.912 L 561.641 602.796 L 561.247 602.872 L 560.95 603.089 L 560.763 603.442 L 560.697 603.926 L 560.778 604.38 L 561 604.728 L 561.353 604.955 L 561.822 605.03 L 561.857 605.03 L 561.857 604.581 L 561.535 604.541 L 561.303 604.41 L 561.161 604.198 L 561.111 603.901 L 561.151 603.638 L 561.257 603.447 L 561.429 603.331 L 561.661 603.285 L 561.908 603.331 L 562.074 603.452 L 562.175 603.664 L 562.205 603.951 L 562.2 604.148 L 562.599 604.148 L 562.589 603.901 L 562.634 603.583 L 562.755 603.346 L 562.952 603.205 L 563.209 603.154 L 563.501 603.21 L 563.718 603.356 L 563.854 603.588 L 563.9 603.896 L 563.849 604.213 L 563.698 604.445 L 563.456 604.591 L 563.123 604.647 L 563.123 605.111 L 563.123 605.111 z M 564.223 601.335 L 564.223 598.929 L 563.789 598.929 L 563.789 600.83 L 563.552 600.724 L 563.355 600.543 L 562.997 599.983 L 562.846 599.685 L 562.629 599.353 L 562.377 599.116 L 562.079 598.979 L 561.741 598.929 L 561.318 599.015 L 560.985 599.252 L 560.773 599.615 L 560.697 600.084 L 560.783 600.568 L 561.02 600.936 L 561.398 601.173 L 561.898 601.254 L 561.968 601.254 L 561.968 600.795 L 561.928 600.795 L 561.585 600.75 L 561.333 600.613 L 561.172 600.396 L 561.116 600.109 L 561.166 599.817 L 561.293 599.6 L 561.489 599.458 L 561.736 599.408 L 561.968 599.443 L 562.165 599.539 L 562.336 599.701 L 562.488 599.922 L 562.649 600.22 L 562.962 600.714 L 563.295 601.062 L 563.698 601.269 L 564.208 601.335 L 564.223 601.335 L 564.223 601.335 z M 563.123 597.639 L 563.159 597.639 L 563.643 597.558 L 564.006 597.321 L 564.238 596.948 L 564.324 596.454 L 564.238 595.929 L 564.016 595.536 L 563.663 595.284 L 563.209 595.193 L 562.911 595.233 L 562.669 595.344 L 562.483 595.526 L 562.347 595.768 L 562.074 595.44 L 561.641 595.324 L 561.247 595.4 L 560.95 595.617 L 560.763 595.97 L 560.697 596.454 L 560.778 596.908 L 561 597.256 L 561.353 597.483 L 561.822 597.558 L 561.857 597.558 L 561.857 597.109 L 561.535 597.069 L 561.303 596.938 L 561.161 596.726 L 561.111 596.429 L 561.151 596.166 L 561.257 595.975 L 561.429 595.859 L 561.661 595.813 L 561.908 595.859 L 562.074 595.98 L 562.175 596.191 L 562.205 596.479 L 562.2 596.676 L 562.599 596.676 L 562.589 596.429 L 562.634 596.111 L 562.755 595.874 L 562.952 595.733 L 563.209 595.682 L 563.501 595.738 L 563.718 595.884 L 563.854 596.116 L 563.9 596.423 L 563.849 596.741 L 563.698 596.973 L 563.456 597.119 L 563.123 597.175 L 563.123 597.639 L 563.123 597.639 z M 564.223 592.98 L 564.223 592.284 L 563.471 592.284 L 563.471 592.98 L 564.223 592.98 L 564.223 592.98 z M 562.513 590.111 L 563.305 590.036 L 563.87 589.799 L 564.213 589.42 L 564.324 588.896 L 564.213 588.376 L 563.87 587.998 L 563.305 587.766 L 562.513 587.686 L 561.726 587.766 L 561.414 587.862 L 561.156 587.998 L 560.813 588.376 L 560.697 588.896 L 560.813 589.42 L 561.161 589.799 L 561.726 590.036 L 562.513 590.111 L 562.513 590.111 z M 562.513 589.627 L 561.903 589.587 L 561.464 589.461 L 561.207 589.234 L 561.116 588.896 L 561.207 588.563 L 561.464 588.336 L 561.903 588.21 L 562.513 588.17 L 563.128 588.21 L 563.567 588.336 L 563.824 588.563 L 563.91 588.896 L 563.824 589.234 L 563.567 589.461 L 563.128 589.587 L 562.513 589.627 L 562.513 589.627 z M 564.223 584.883 L 564.223 584.429 L 563.355 584.429 L 563.355 583.929 L 562.952 583.929 L 562.952 584.429 L 560.798 584.429 L 560.798 584.888 L 562.911 586.421 L 563.355 586.421 L 563.355 584.883 L 564.223 584.883 L 564.223 584.883 z M 562.952 585.997 L 561.383 584.883 L 562.952 584.883 L 562.952 585.997 L 562.952 585.997 z" fill = "rgb(0, 0, 0)" stroke = "none" fill-rule = "nonzero"/><path d = "M 565.705 1077.13 L 566.223 1079.06 L 566.74 1077.13"/><path d = "M 566.74 111.873 L 566.223 109.942 L 565.705 111.873"/><path d = "M 566.223 1079.06 L 566.223 109.942"/></g><g fill = "none" stroke = "rgb(0, 0, 0)" stroke-width = "0.13" stroke-linecap = "butt" stroke-linejoin = "miter"><path d = "M 417.931 81.5272 L 418.44 81.5272 L 418.607 80.6951 L 418.899 79.9185 L 419.313 79.1973 L 419.852 78.5215 L 419.852 78.1029 L 417.452 78.1029 L 417.452 78.5618 L 419.368 78.5618 L 418.814 79.2427 L 418.395 79.9537 L 418.102 80.7102 L 417.931 81.5272 L 417.931 81.5272 z M 421.097 80.4279 L 421.097 80.4631 L 421.178 80.9473 L 421.415 81.3103 L 421.788 81.5424 L 422.282 81.6281 L 422.807 81.5424 L 423.2 81.3204 L 423.452 80.9674 L 423.543 80.5135 L 423.503 80.2159 L 423.392 79.9739 L 423.21 79.7874 L 422.968 79.6511 L 423.296 79.3788 L 423.412 78.9451 L 423.336 78.5518 L 423.119 78.2542 L 422.766 78.0676 L 422.282 78.0021 L 421.828 78.0828 L 421.48 78.3046 L 421.253 78.6576 L 421.178 79.1267 L 421.178 79.162 L 421.627 79.162 L 421.667 78.8392 L 421.798 78.6072 L 422.01 78.4659 L 422.307 78.4155 L 422.57 78.4559 L 422.761 78.5618 L 422.877 78.7333 L 422.923 78.9652 L 422.877 79.2124 L 422.756 79.3788 L 422.544 79.4797 L 422.257 79.5099 L 422.06 79.5049 L 422.06 79.9033 L 422.307 79.8932 L 422.625 79.9386 L 422.862 80.0597 L 423.003 80.2563 L 423.054 80.5135 L 422.998 80.806 L 422.852 81.0229 L 422.62 81.1591 L 422.313 81.2045 L 421.995 81.1541 L 421.763 81.0027 L 421.617 80.7606 L 421.561 80.4279 L 421.097 80.4279 L 421.097 80.4279 z" fill = "rgb(0, 0, 0)" stroke = "none" fill-rule = "nonzero"/><path d = "M 528.068 84.0448 L 530 83.5272 L 528.068 83.0095"/><path d = "M 312.932 83.0095 L 311 83.5272 L 312.932 84.0448"/><path d = "M 311 83.5272 L 530 83.5272"/></g><g fill = "none" stroke = "rgb(0, 0, 0)" stroke-width = "0.13" stroke-linecap = "butt" stroke-linejoin = "miter"><path d = "M 422.896 1101.41 L 422.018 1104.39 L 421.115 1101.41 L 420.636 1101.41 L 421.766 1104.92 L 422.27 1104.92 L 423.375 1101.41 L 422.896 1101.41 L 422.896 1101.41 z M 426.098 1102.21 L 425.654 1102.21 L 425.654 1103.77 L 425.604 1104.13 L 425.457 1104.4 L 425.231 1104.56 L 424.933 1104.61 L 424.696 1104.57 L 424.545 1104.45 L 424.459 1104.24 L 424.439 1103.95 L 424.439 1102.21 L 423.995 1102.21 L 423.995 1103.99 L 424.01 1104.35 L 424.106 1104.64 L 424.398 1104.92 L 424.867 1105.01 L 425.12 1104.98 L 425.336 1104.88 L 425.523 1104.73 L 425.674 1104.5 L 425.674 1104.92 L 426.098 1104.92 L 426.098 1102.21 L 426.098 1102.21 z M 427.434 1103.69 L 429.21 1103.69 L 429.215 1103.48 L 429.134 1102.9 L 428.912 1102.47 L 428.559 1102.21 L 428.09 1102.11 L 427.631 1102.21 L 427.278 1102.49 L 427.051 1102.95 L 426.97 1103.56 L 427.046 1104.18 L 427.273 1104.63 L 427.621 1104.92 L 428.075 1105.01 L 428.468 1104.95 L 428.791 1104.77 L 429.028 1104.5 L 429.164 1104.14 L 428.726 1104.14 L 428.635 1104.34 L 428.504 1104.49 L 428.13 1104.61 L 427.843 1104.56 L 427.626 1104.38 L 427.485 1104.09 L 427.434 1103.7 L 427.434 1103.69 L 427.434 1103.69 z M 427.434 1103.32 L 427.49 1102.97 L 427.626 1102.71 L 427.833 1102.55 L 428.105 1102.5 L 428.372 1102.55 L 428.579 1102.71 L 428.705 1102.97 L 428.751 1103.32 L 427.434 1103.32 L 427.434 1103.32 z M 434.782 1104.5 L 434.782 1104.92 L 435.226 1104.92 L 435.226 1101.29 L 434.788 1101.29 L 434.788 1102.62 L 434.45 1102.24 L 434.243 1102.15 L 434.006 1102.11 L 433.577 1102.21 L 433.244 1102.49 L 433.027 1102.95 L 432.952 1103.56 L 433.027 1104.17 L 433.244 1104.63 L 433.577 1104.92 L 434.006 1105.01 L 434.243 1104.98 L 434.455 1104.88 L 434.782 1104.5 L 434.782 1104.5 z M 434.081 1102.51 L 434.374 1102.58 L 434.596 1102.78 L 434.727 1103.1 L 434.777 1103.56 L 434.727 1104.02 L 434.596 1104.35 L 434.374 1104.55 L 434.081 1104.61 L 433.804 1104.55 L 433.592 1104.35 L 433.451 1104.01 L 433.406 1103.56 L 433.451 1103.11 L 433.592 1102.78 L 433.804 1102.58 L 434.081 1102.51 L 434.081 1102.51 z M 436.543 1103.69 L 438.318 1103.69 L 438.323 1103.48 L 438.242 1102.9 L 438.02 1102.47 L 437.667 1102.21 L 437.198 1102.11 L 436.739 1102.21 L 436.386 1102.49 L 436.159 1102.95 L 436.079 1103.56 L 436.154 1104.18 L 436.381 1104.63 L 436.729 1104.92 L 437.183 1105.01 L 437.576 1104.95 L 437.899 1104.77 L 438.136 1104.5 L 438.272 1104.14 L 437.834 1104.14 L 437.743 1104.34 L 437.612 1104.49 L 437.239 1104.61 L 436.951 1104.56 L 436.734 1104.38 L 436.593 1104.09 L 436.543 1103.7 L 436.543 1103.69 L 436.543 1103.69 z M 436.543 1103.32 L 436.598 1102.97 L 436.734 1102.71 L 436.941 1102.55 L 437.213 1102.5 L 437.481 1102.55 L 437.687 1102.71 L 437.813 1102.97 L 437.859 1103.32 L 436.543 1103.32 L 436.543 1103.32 z M 442.842 1102.68 L 442.842 1104.92 L 443.285 1104.92 L 443.285 1102.68 L 444.294 1102.68 L 444.294 1102.3 L 443.285 1102.3 L 443.285 1102.13 L 443.321 1101.93 L 443.437 1101.79 L 443.633 1101.71 L 443.916 1101.68 L 444.294 1101.7 L 444.294 1101.32 L 443.815 1101.29 L 443.381 1101.34 L 443.079 1101.48 L 442.897 1101.71 L 442.842 1102.05 L 442.842 1102.3 L 442.03 1102.3 L 442.03 1102.68 L 442.842 1102.68 L 442.842 1102.68 z M 446.871 1104.56 L 446.871 1104.58 L 446.896 1104.75 L 446.972 1104.87 L 447.29 1104.97 L 447.537 1104.93 L 447.537 1104.58 L 447.431 1104.6 L 447.29 1104.53 L 447.265 1104.33 L 447.265 1102.93 L 447.204 1102.57 L 447.027 1102.32 L 446.72 1102.17 L 446.286 1102.11 L 445.863 1102.17 L 445.55 1102.34 L 445.353 1102.61 L 445.288 1102.96 L 445.288 1102.99 L 445.686 1102.99 L 445.721 1102.78 L 445.832 1102.63 L 446.014 1102.54 L 446.271 1102.5 L 446.518 1102.53 L 446.695 1102.61 L 446.801 1102.74 L 446.836 1102.92 L 446.816 1103.13 L 446.735 1103.24 L 446.533 1103.29 L 446.155 1103.33 L 445.721 1103.42 L 445.414 1103.58 L 445.232 1103.83 L 445.177 1104.2 L 445.227 1104.54 L 445.383 1104.78 L 445.636 1104.94 L 445.984 1105 L 446.453 1104.89 L 446.871 1104.56 L 446.871 1104.56 z M 446.821 1103.97 L 446.76 1104.23 L 446.599 1104.43 L 446.357 1104.56 L 446.059 1104.61 L 445.868 1104.58 L 445.731 1104.5 L 445.646 1104.36 L 445.62 1104.16 L 445.641 1103.99 L 445.721 1103.86 L 446.044 1103.72 L 446.453 1103.66 L 446.821 1103.54 L 446.821 1103.97 L 446.821 1103.97 z M 450.023 1103.1 L 450.462 1103.1 L 450.371 1102.7 L 450.154 1102.38 L 449.816 1102.19 L 449.378 1102.11 L 448.894 1102.21 L 448.525 1102.49 L 448.293 1102.95 L 448.213 1103.57 L 448.288 1104.18 L 448.515 1104.63 L 448.873 1104.92 L 449.363 1105.01 L 449.796 1104.94 L 450.134 1104.72 L 450.366 1104.39 L 450.467 1103.95 L 450.043 1103.95 L 449.968 1104.23 L 449.827 1104.44 L 449.625 1104.57 L 449.378 1104.61 L 449.07 1104.55 L 448.848 1104.35 L 448.712 1104.02 L 448.667 1103.55 L 448.712 1103.1 L 448.853 1102.77 L 449.08 1102.57 L 449.378 1102.5 L 449.64 1102.54 L 449.837 1102.66 L 449.968 1102.85 L 450.023 1103.1 L 450.023 1103.1 z M 451.723 1103.69 L 453.498 1103.69 L 453.503 1103.48 L 453.422 1102.9 L 453.2 1102.47 L 452.847 1102.21 L 452.378 1102.11 L 451.919 1102.21 L 451.566 1102.49 L 451.339 1102.95 L 451.259 1103.56 L 451.334 1104.18 L 451.561 1104.63 L 451.909 1104.92 L 452.363 1105.01 L 452.757 1104.95 L 453.079 1104.77 L 453.316 1104.5 L 453.453 1104.14 L 453.014 1104.14 L 452.923 1104.34 L 452.792 1104.49 L 452.419 1104.61 L 452.131 1104.56 L 451.914 1104.38 L 451.773 1104.09 L 451.723 1103.7 L 451.723 1103.69 L 451.723 1103.69 z M 451.723 1103.32 L 451.778 1102.97 L 451.914 1102.71 L 452.121 1102.55 L 452.394 1102.5 L 452.661 1102.55 L 452.868 1102.71 L 452.994 1102.97 L 453.039 1103.32 L 451.723 1103.32 L 451.723 1103.32 z" fill = "rgb(0, 0, 0)" stroke = "none" fill-rule = "nonzero"/></g><g fill = "none" stroke = "rgb(0, 0, 0)" stroke-width = "0.13" stroke-linecap = "butt" stroke-linejoin = "miter"><path d = "M 420.959 1110.96 L 423.178 1110.96 L 423.178 1110.54 L 421.423 1110.54 L 421.423 1109.35 L 422.986 1109.35 L 422.986 1108.93 L 421.423 1108.93 L 421.423 1107.89 L 423.138 1107.89 L 423.138 1107.46 L 420.959 1107.46 L 420.959 1110.96 L 420.959 1110.96 z M 425.735 1109.15 L 426.174 1109.15 L 426.083 1108.75 L 425.866 1108.43 L 425.528 1108.23 L 425.089 1108.16 L 424.605 1108.26 L 424.237 1108.54 L 424.005 1109 L 423.924 1109.62 L 424 1110.23 L 424.227 1110.68 L 424.585 1110.96 L 425.074 1111.06 L 425.508 1110.98 L 425.846 1110.77 L 426.078 1110.44 L 426.179 1109.99 L 425.755 1109.99 L 425.679 1110.28 L 425.538 1110.49 L 425.336 1110.62 L 425.089 1110.66 L 424.782 1110.59 L 424.56 1110.39 L 424.424 1110.06 L 424.378 1109.6 L 424.424 1109.15 L 424.565 1108.82 L 424.792 1108.62 L 425.089 1108.55 L 425.352 1108.59 L 425.548 1108.71 L 425.679 1108.9 L 425.735 1109.15 L 425.735 1109.15 z M 427.046 1110.96 L 427.49 1110.96 L 427.49 1109.4 L 427.535 1109.04 L 427.682 1108.78 L 427.909 1108.62 L 428.211 1108.56 L 428.453 1108.61 L 428.604 1108.74 L 428.68 1108.97 L 428.705 1109.27 L 428.705 1110.96 L 429.149 1110.96 L 429.149 1109.18 L 429.129 1108.82 L 429.038 1108.53 L 428.741 1108.25 L 428.277 1108.16 L 428.025 1108.19 L 427.808 1108.29 L 427.626 1108.44 L 427.49 1108.65 L 427.49 1107.34 L 427.046 1107.34 L 427.046 1110.96 L 427.046 1110.96 z M 430.47 1109.74 L 432.246 1109.74 L 432.251 1109.53 L 432.17 1108.95 L 431.948 1108.52 L 431.595 1108.25 L 431.126 1108.16 L 430.667 1108.26 L 430.314 1108.54 L 430.087 1109 L 430.007 1109.61 L 430.082 1110.23 L 430.309 1110.68 L 430.657 1110.96 L 431.111 1111.06 L 431.504 1110.99 L 431.827 1110.82 L 432.064 1110.55 L 432.2 1110.19 L 431.762 1110.19 L 431.671 1110.39 L 431.54 1110.54 L 431.166 1110.66 L 430.879 1110.6 L 430.662 1110.43 L 430.521 1110.14 L 430.47 1109.75 L 430.47 1109.74 L 430.47 1109.74 z M 430.47 1109.36 L 430.526 1109.02 L 430.662 1108.76 L 430.869 1108.6 L 431.141 1108.55 L 431.409 1108.6 L 431.615 1108.76 L 431.741 1109.02 L 431.787 1109.36 L 430.47 1109.36 L 430.47 1109.36 z M 434.001 1107.71 L 434.001 1110.59 L 433.088 1110.59 L 433.088 1110.96 L 435.352 1110.96 L 435.352 1110.59 L 434.445 1110.59 L 434.445 1107.34 L 433.305 1107.34 L 433.305 1107.71 L 434.001 1107.71 L 434.001 1107.71 z M 437.037 1107.71 L 437.037 1110.59 L 436.124 1110.59 L 436.124 1110.96 L 438.388 1110.96 L 438.388 1110.59 L 437.481 1110.59 L 437.481 1107.34 L 436.341 1107.34 L 436.341 1107.71 L 437.037 1107.71 L 437.037 1107.71 z M 439.579 1109.74 L 441.354 1109.74 L 441.359 1109.53 L 441.278 1108.95 L 441.056 1108.52 L 440.703 1108.25 L 440.234 1108.16 L 439.775 1108.26 L 439.422 1108.54 L 439.195 1109 L 439.115 1109.61 L 439.19 1110.23 L 439.417 1110.68 L 439.765 1110.96 L 440.219 1111.06 L 440.612 1110.99 L 440.935 1110.82 L 441.172 1110.55 L 441.308 1110.19 L 440.87 1110.19 L 440.779 1110.39 L 440.648 1110.54 L 440.275 1110.66 L 439.987 1110.6 L 439.77 1110.43 L 439.629 1110.14 L 439.579 1109.75 L 439.579 1109.74 L 439.579 1109.74 z M 439.579 1109.36 L 439.634 1109.02 L 439.77 1108.76 L 439.977 1108.6 L 440.249 1108.55 L 440.517 1108.6 L 440.723 1108.76 L 440.85 1109.02 L 440.895 1109.36 L 439.579 1109.36 L 439.579 1109.36 z M 445.958 1110.96 L 446.654 1110.96 L 446.654 1110.21 L 445.958 1110.21 L 445.958 1110.96 L 445.958 1110.96 z M 445.958 1109.01 L 446.654 1109.01 L 446.654 1108.25 L 445.958 1108.25 L 445.958 1109.01 L 445.958 1109.01 z" fill = "rgb(0, 0, 0)" stroke = "none" fill-rule = "nonzero"/></g><g fill = "none" stroke = "rgb(0, 0, 0)" stroke-width = "0.13" stroke-linecap = "butt" stroke-linejoin = "miter"><path d = "M 454.143 1109.86 L 454.143 1109.9 L 454.224 1110.38 L 454.461 1110.75 L 454.834 1110.98 L 455.329 1111.06 L 455.853 1110.98 L 456.246 1110.76 L 456.499 1110.4 L 456.589 1109.95 L 456.549 1109.65 L 456.438 1109.41 L 456.257 1109.22 L 456.014 1109.09 L 456.342 1108.81 L 456.458 1108.38 L 456.383 1107.99 L 456.166 1107.69 L 455.813 1107.5 L 455.329 1107.44 L 454.875 1107.52 L 454.527 1107.74 L 454.3 1108.09 L 454.224 1108.56 L 454.224 1108.6 L 454.673 1108.6 L 454.713 1108.27 L 454.844 1108.04 L 455.056 1107.9 L 455.354 1107.85 L 455.616 1107.89 L 455.808 1108 L 455.924 1108.17 L 455.969 1108.4 L 455.924 1108.65 L 455.803 1108.81 L 455.591 1108.91 L 455.303 1108.94 L 455.107 1108.94 L 455.107 1109.34 L 455.354 1109.33 L 455.672 1109.37 L 455.909 1109.49 L 456.05 1109.69 L 456.1 1109.95 L 456.045 1110.24 L 455.898 1110.46 L 455.666 1110.59 L 455.359 1110.64 L 455.041 1110.59 L 454.809 1110.44 L 454.663 1110.2 L 454.607 1109.86 L 454.143 1109.86 L 454.143 1109.86 z M 458.102 1110.96 L 458.798 1110.96 L 458.798 1110.21 L 458.102 1110.21 L 458.102 1110.96 L 458.102 1110.96 z M 458.102 1109.01 L 458.798 1109.01 L 458.798 1108.25 L 458.102 1108.25 L 458.102 1109.01 L 458.102 1109.01 z M 461.396 1110.96 L 461.855 1110.96 L 461.855 1107.44 L 461.512 1107.44 L 461.421 1107.74 L 461.239 1107.95 L 460.962 1108.07 L 460.579 1108.11 L 460.579 1108.47 L 461.396 1108.47 L 461.396 1110.96 L 461.396 1110.96 z" fill = "rgb(0, 0, 0)" stroke = "none" fill-rule = "nonzero"/></g></svg>
